<svg version="1.1" xmlns="http://www.w3.org/2000/svg" width="300px" height="300px" viewBox="0 0 310 310"  preserveAspectRatio="xMinYMin meet"><rect width="100%" height="100%" fill="#ffffff" cx="0" cy="0"/><path d="M10,10l10,0 0,10 -10,0 0,-10z M20,10l10,0 0,10 -10,0 0,-10z M30,10l10,0 0,10 -10,0 0,-10z M40,10l10,0 0,10 -10,0 0,-10z M50,10l10,0 0,10 -10,0 0,-10z M60,10l10,0 0,10 -10,0 0,-10z M70,10l10,0 0,10 -10,0 0,-10z M100,10l10,0 0,10 -10,0 0,-10z M110,10l10,0 0,10 -10,0 0,-10z M120,10l10,0 0,10 -10,0 0,-10z M150,10l10,0 0,10 -10,0 0,-10z M170,10l10,0 0,10 -10,0 0,-10z M180,10l10,0 0,10 -10,0 0,-10z M230,10l10,0 0,10 -10,0 0,-10z M240,10l10,0 0,10 -10,0 0,-10z M250,10l10,0 0,10 -10,0 0,-10z M260,10l10,0 0,10 -10,0 0,-10z M270,10l10,0 0,10 -10,0 0,-10z M280,10l10,0 0,10 -10,0 0,-10z M290,10l10,0 0,10 -10,0 0,-10z M10,20l10,0 0,10 -10,0 0,-10z M70,20l10,0 0,10 -10,0 0,-10z M120,20l10,0 0,10 -10,0 0,-10z M130,20l10,0 0,10 -10,0 0,-10z M140,20l10,0 0,10 -10,0 0,-10z M150,20l10,0 0,10 -10,0 0,-10z M170,20l10,0 0,10 -10,0 0,-10z M210,20l10,0 0,10 -10,0 0,-10z M230,20l10,0 0,10 -10,0 0,-10z M290,20l10,0 0,10 -10,0 0,-10z M10,30l10,0 0,10 -10,0 0,-10z M30,30l10,0 0,10 -10,0 0,-10z M40,30l10,0 0,10 -10,0 0,-10z M50,30l10,0 0,10 -10,0 0,-10z M70,30l10,0 0,10 -10,0 0,-10z M100,30l10,0 0,10 -10,0 0,-10z M110,30l10,0 0,10 -10,0 0,-10z M120,30l10,0 0,10 -10,0 0,-10z M150,30l10,0 0,10 -10,0 0,-10z M160,30l10,0 0,10 -10,0 0,-10z M170,30l10,0 0,10 -10,0 0,-10z M190,30l10,0 0,10 -10,0 0,-10z M200,30l10,0 0,10 -10,0 0,-10z M230,30l10,0 0,10 -10,0 0,-10z M250,30l10,0 0,10 -10,0 0,-10z M260,30l10,0 0,10 -10,0 0,-10z M270,30l10,0 0,10 -10,0 0,-10z M290,30l10,0 0,10 -10,0 0,-10z M10,40l10,0 0,10 -10,0 0,-10z M30,40l10,0 0,10 -10,0 0,-10z M40,40l10,0 0,10 -10,0 0,-10z M50,40l10,0 0,10 -10,0 0,-10z M70,40l10,0 0,10 -10,0 0,-10z M90,40l10,0 0,10 -10,0 0,-10z M110,40l10,0 0,10 -10,0 0,-10z M120,40l10,0 0,10 -10,0 0,-10z M150,40l10,0 0,10 -10,0 0,-10z M160,40l10,0 0,10 -10,0 0,-10z M170,40l10,0 0,10 -10,0 0,-10z M180,40l10,0 0,10 -10,0 0,-10z M230,40l10,0 0,10 -10,0 0,-10z M250,40l10,0 0,10 -10,0 0,-10z M260,40l10,0 0,10 -10,0 0,-10z M270,40l10,0 0,10 -10,0 0,-10z M290,40l10,0 0,10 -10,0 0,-10z M10,50l10,0 0,10 -10,0 0,-10z M30,50l10,0 0,10 -10,0 0,-10z M40,50l10,0 0,10 -10,0 0,-10z M50,50l10,0 0,10 -10,0 0,-10z M70,50l10,0 0,10 -10,0 0,-10z M90,50l10,0 0,10 -10,0 0,-10z M110,50l10,0 0,10 -10,0 0,-10z M130,50l10,0 0,10 -10,0 0,-10z M140,50l10,0 0,10 -10,0 0,-10z M170,50l10,0 0,10 -10,0 0,-10z M200,50l10,0 0,10 -10,0 0,-10z M210,50l10,0 0,10 -10,0 0,-10z M230,50l10,0 0,10 -10,0 0,-10z M250,50l10,0 0,10 -10,0 0,-10z M260,50l10,0 0,10 -10,0 0,-10z M270,50l10,0 0,10 -10,0 0,-10z M290,50l10,0 0,10 -10,0 0,-10z M10,60l10,0 0,10 -10,0 0,-10z M70,60l10,0 0,10 -10,0 0,-10z M100,60l10,0 0,10 -10,0 0,-10z M110,60l10,0 0,10 -10,0 0,-10z M140,60l10,0 0,10 -10,0 0,-10z M150,60l10,0 0,10 -10,0 0,-10z M170,60l10,0 0,10 -10,0 0,-10z M210,60l10,0 0,10 -10,0 0,-10z M230,60l10,0 0,10 -10,0 0,-10z M290,60l10,0 0,10 -10,0 0,-10z M10,70l10,0 0,10 -10,0 0,-10z M20,70l10,0 0,10 -10,0 0,-10z M30,70l10,0 0,10 -10,0 0,-10z M40,70l10,0 0,10 -10,0 0,-10z M50,70l10,0 0,10 -10,0 0,-10z M60,70l10,0 0,10 -10,0 0,-10z M70,70l10,0 0,10 -10,0 0,-10z M90,70l10,0 0,10 -10,0 0,-10z M110,70l10,0 0,10 -10,0 0,-10z M130,70l10,0 0,10 -10,0 0,-10z M150,70l10,0 0,10 -10,0 0,-10z M170,70l10,0 0,10 -10,0 0,-10z M190,70l10,0 0,10 -10,0 0,-10z M210,70l10,0 0,10 -10,0 0,-10z M230,70l10,0 0,10 -10,0 0,-10z M240,70l10,0 0,10 -10,0 0,-10z M250,70l10,0 0,10 -10,0 0,-10z M260,70l10,0 0,10 -10,0 0,-10z M270,70l10,0 0,10 -10,0 0,-10z M280,70l10,0 0,10 -10,0 0,-10z M290,70l10,0 0,10 -10,0 0,-10z M100,80l10,0 0,10 -10,0 0,-10z M130,80l10,0 0,10 -10,0 0,-10z M140,80l10,0 0,10 -10,0 0,-10z M160,80l10,0 0,10 -10,0 0,-10z M170,80l10,0 0,10 -10,0 0,-10z M200,80l10,0 0,10 -10,0 0,-10z M10,90l10,0 0,10 -10,0 0,-10z M20,90l10,0 0,10 -10,0 0,-10z M60,90l10,0 0,10 -10,0 0,-10z M70,90l10,0 0,10 -10,0 0,-10z M80,90l10,0 0,10 -10,0 0,-10z M100,90l10,0 0,10 -10,0 0,-10z M110,90l10,0 0,10 -10,0 0,-10z M130,90l10,0 0,10 -10,0 0,-10z M150,90l10,0 0,10 -10,0 0,-10z M180,90l10,0 0,10 -10,0 0,-10z M210,90l10,0 0,10 -10,0 0,-10z M250,90l10,0 0,10 -10,0 0,-10z M260,90l10,0 0,10 -10,0 0,-10z M20,100l10,0 0,10 -10,0 0,-10z M40,100l10,0 0,10 -10,0 0,-10z M50,100l10,0 0,10 -10,0 0,-10z M110,100l10,0 0,10 -10,0 0,-10z M150,100l10,0 0,10 -10,0 0,-10z M160,100l10,0 0,10 -10,0 0,-10z M190,100l10,0 0,10 -10,0 0,-10z M200,100l10,0 0,10 -10,0 0,-10z M240,100l10,0 0,10 -10,0 0,-10z M250,100l10,0 0,10 -10,0 0,-10z M270,100l10,0 0,10 -10,0 0,-10z M280,100l10,0 0,10 -10,0 0,-10z M50,110l10,0 0,10 -10,0 0,-10z M60,110l10,0 0,10 -10,0 0,-10z M70,110l10,0 0,10 -10,0 0,-10z M80,110l10,0 0,10 -10,0 0,-10z M100,110l10,0 0,10 -10,0 0,-10z M120,110l10,0 0,10 -10,0 0,-10z M130,110l10,0 0,10 -10,0 0,-10z M160,110l10,0 0,10 -10,0 0,-10z M170,110l10,0 0,10 -10,0 0,-10z M210,110l10,0 0,10 -10,0 0,-10z M250,110l10,0 0,10 -10,0 0,-10z M10,120l10,0 0,10 -10,0 0,-10z M50,120l10,0 0,10 -10,0 0,-10z M60,120l10,0 0,10 -10,0 0,-10z M80,120l10,0 0,10 -10,0 0,-10z M110,120l10,0 0,10 -10,0 0,-10z M120,120l10,0 0,10 -10,0 0,-10z M150,120l10,0 0,10 -10,0 0,-10z M160,120l10,0 0,10 -10,0 0,-10z M190,120l10,0 0,10 -10,0 0,-10z M210,120l10,0 0,10 -10,0 0,-10z M220,120l10,0 0,10 -10,0 0,-10z M240,120l10,0 0,10 -10,0 0,-10z M250,120l10,0 0,10 -10,0 0,-10z M260,120l10,0 0,10 -10,0 0,-10z M10,130l10,0 0,10 -10,0 0,-10z M20,130l10,0 0,10 -10,0 0,-10z M30,130l10,0 0,10 -10,0 0,-10z M40,130l10,0 0,10 -10,0 0,-10z M70,130l10,0 0,10 -10,0 0,-10z M80,130l10,0 0,10 -10,0 0,-10z M100,130l10,0 0,10 -10,0 0,-10z M110,130l10,0 0,10 -10,0 0,-10z M140,130l10,0 0,10 -10,0 0,-10z M150,130l10,0 0,10 -10,0 0,-10z M160,130l10,0 0,10 -10,0 0,-10z M170,130l10,0 0,10 -10,0 0,-10z M210,130l10,0 0,10 -10,0 0,-10z M230,130l10,0 0,10 -10,0 0,-10z M290,130l10,0 0,10 -10,0 0,-10z M30,140l10,0 0,10 -10,0 0,-10z M40,140l10,0 0,10 -10,0 0,-10z M50,140l10,0 0,10 -10,0 0,-10z M60,140l10,0 0,10 -10,0 0,-10z M90,140l10,0 0,10 -10,0 0,-10z M100,140l10,0 0,10 -10,0 0,-10z M110,140l10,0 0,10 -10,0 0,-10z M130,140l10,0 0,10 -10,0 0,-10z M140,140l10,0 0,10 -10,0 0,-10z M150,140l10,0 0,10 -10,0 0,-10z M160,140l10,0 0,10 -10,0 0,-10z M170,140l10,0 0,10 -10,0 0,-10z M180,140l10,0 0,10 -10,0 0,-10z M190,140l10,0 0,10 -10,0 0,-10z M200,140l10,0 0,10 -10,0 0,-10z M210,140l10,0 0,10 -10,0 0,-10z M220,140l10,0 0,10 -10,0 0,-10z M230,140l10,0 0,10 -10,0 0,-10z M240,140l10,0 0,10 -10,0 0,-10z M250,140l10,0 0,10 -10,0 0,-10z M280,140l10,0 0,10 -10,0 0,-10z M290,140l10,0 0,10 -10,0 0,-10z M30,150l10,0 0,10 -10,0 0,-10z M40,150l10,0 0,10 -10,0 0,-10z M70,150l10,0 0,10 -10,0 0,-10z M90,150l10,0 0,10 -10,0 0,-10z M100,150l10,0 0,10 -10,0 0,-10z M110,150l10,0 0,10 -10,0 0,-10z M140,150l10,0 0,10 -10,0 0,-10z M150,150l10,0 0,10 -10,0 0,-10z M160,150l10,0 0,10 -10,0 0,-10z M190,150l10,0 0,10 -10,0 0,-10z M210,150l10,0 0,10 -10,0 0,-10z M220,150l10,0 0,10 -10,0 0,-10z M240,150l10,0 0,10 -10,0 0,-10z M260,150l10,0 0,10 -10,0 0,-10z M270,150l10,0 0,10 -10,0 0,-10z M10,160l10,0 0,10 -10,0 0,-10z M40,160l10,0 0,10 -10,0 0,-10z M50,160l10,0 0,10 -10,0 0,-10z M80,160l10,0 0,10 -10,0 0,-10z M110,160l10,0 0,10 -10,0 0,-10z M130,160l10,0 0,10 -10,0 0,-10z M140,160l10,0 0,10 -10,0 0,-10z M150,160l10,0 0,10 -10,0 0,-10z M160,160l10,0 0,10 -10,0 0,-10z M210,160l10,0 0,10 -10,0 0,-10z M250,160l10,0 0,10 -10,0 0,-10z M270,160l10,0 0,10 -10,0 0,-10z M290,160l10,0 0,10 -10,0 0,-10z M30,170l10,0 0,10 -10,0 0,-10z M40,170l10,0 0,10 -10,0 0,-10z M60,170l10,0 0,10 -10,0 0,-10z M70,170l10,0 0,10 -10,0 0,-10z M90,170l10,0 0,10 -10,0 0,-10z M130,170l10,0 0,10 -10,0 0,-10z M150,170l10,0 0,10 -10,0 0,-10z M180,170l10,0 0,10 -10,0 0,-10z M240,170l10,0 0,10 -10,0 0,-10z M260,170l10,0 0,10 -10,0 0,-10z M270,170l10,0 0,10 -10,0 0,-10z M10,180l10,0 0,10 -10,0 0,-10z M50,180l10,0 0,10 -10,0 0,-10z M60,180l10,0 0,10 -10,0 0,-10z M90,180l10,0 0,10 -10,0 0,-10z M100,180l10,0 0,10 -10,0 0,-10z M160,180l10,0 0,10 -10,0 0,-10z M180,180l10,0 0,10 -10,0 0,-10z M190,180l10,0 0,10 -10,0 0,-10z M200,180l10,0 0,10 -10,0 0,-10z M210,180l10,0 0,10 -10,0 0,-10z M220,180l10,0 0,10 -10,0 0,-10z M230,180l10,0 0,10 -10,0 0,-10z M240,180l10,0 0,10 -10,0 0,-10z M250,180l10,0 0,10 -10,0 0,-10z M270,180l10,0 0,10 -10,0 0,-10z M280,180l10,0 0,10 -10,0 0,-10z M290,180l10,0 0,10 -10,0 0,-10z M10,190l10,0 0,10 -10,0 0,-10z M20,190l10,0 0,10 -10,0 0,-10z M30,190l10,0 0,10 -10,0 0,-10z M40,190l10,0 0,10 -10,0 0,-10z M50,190l10,0 0,10 -10,0 0,-10z M70,190l10,0 0,10 -10,0 0,-10z M80,190l10,0 0,10 -10,0 0,-10z M90,190l10,0 0,10 -10,0 0,-10z M100,190l10,0 0,10 -10,0 0,-10z M130,190l10,0 0,10 -10,0 0,-10z M140,190l10,0 0,10 -10,0 0,-10z M150,190l10,0 0,10 -10,0 0,-10z M160,190l10,0 0,10 -10,0 0,-10z M200,190l10,0 0,10 -10,0 0,-10z M220,190l10,0 0,10 -10,0 0,-10z M250,190l10,0 0,10 -10,0 0,-10z M260,190l10,0 0,10 -10,0 0,-10z M290,190l10,0 0,10 -10,0 0,-10z M10,200l10,0 0,10 -10,0 0,-10z M40,200l10,0 0,10 -10,0 0,-10z M90,200l10,0 0,10 -10,0 0,-10z M100,200l10,0 0,10 -10,0 0,-10z M120,200l10,0 0,10 -10,0 0,-10z M150,200l10,0 0,10 -10,0 0,-10z M210,200l10,0 0,10 -10,0 0,-10z M220,200l10,0 0,10 -10,0 0,-10z M10,210l10,0 0,10 -10,0 0,-10z M30,210l10,0 0,10 -10,0 0,-10z M40,210l10,0 0,10 -10,0 0,-10z M50,210l10,0 0,10 -10,0 0,-10z M60,210l10,0 0,10 -10,0 0,-10z M70,210l10,0 0,10 -10,0 0,-10z M80,210l10,0 0,10 -10,0 0,-10z M120,210l10,0 0,10 -10,0 0,-10z M170,210l10,0 0,10 -10,0 0,-10z M180,210l10,0 0,10 -10,0 0,-10z M190,210l10,0 0,10 -10,0 0,-10z M210,210l10,0 0,10 -10,0 0,-10z M220,210l10,0 0,10 -10,0 0,-10z M230,210l10,0 0,10 -10,0 0,-10z M240,210l10,0 0,10 -10,0 0,-10z M250,210l10,0 0,10 -10,0 0,-10z M270,210l10,0 0,10 -10,0 0,-10z M280,210l10,0 0,10 -10,0 0,-10z M290,210l10,0 0,10 -10,0 0,-10z M90,220l10,0 0,10 -10,0 0,-10z M100,220l10,0 0,10 -10,0 0,-10z M130,220l10,0 0,10 -10,0 0,-10z M140,220l10,0 0,10 -10,0 0,-10z M160,220l10,0 0,10 -10,0 0,-10z M180,220l10,0 0,10 -10,0 0,-10z M190,220l10,0 0,10 -10,0 0,-10z M210,220l10,0 0,10 -10,0 0,-10z M250,220l10,0 0,10 -10,0 0,-10z M260,220l10,0 0,10 -10,0 0,-10z M10,230l10,0 0,10 -10,0 0,-10z M20,230l10,0 0,10 -10,0 0,-10z M30,230l10,0 0,10 -10,0 0,-10z M40,230l10,0 0,10 -10,0 0,-10z M50,230l10,0 0,10 -10,0 0,-10z M60,230l10,0 0,10 -10,0 0,-10z M70,230l10,0 0,10 -10,0 0,-10z M90,230l10,0 0,10 -10,0 0,-10z M100,230l10,0 0,10 -10,0 0,-10z M140,230l10,0 0,10 -10,0 0,-10z M150,230l10,0 0,10 -10,0 0,-10z M160,230l10,0 0,10 -10,0 0,-10z M170,230l10,0 0,10 -10,0 0,-10z M180,230l10,0 0,10 -10,0 0,-10z M200,230l10,0 0,10 -10,0 0,-10z M210,230l10,0 0,10 -10,0 0,-10z M230,230l10,0 0,10 -10,0 0,-10z M250,230l10,0 0,10 -10,0 0,-10z M260,230l10,0 0,10 -10,0 0,-10z M270,230l10,0 0,10 -10,0 0,-10z M10,240l10,0 0,10 -10,0 0,-10z M70,240l10,0 0,10 -10,0 0,-10z M90,240l10,0 0,10 -10,0 0,-10z M100,240l10,0 0,10 -10,0 0,-10z M110,240l10,0 0,10 -10,0 0,-10z M130,240l10,0 0,10 -10,0 0,-10z M140,240l10,0 0,10 -10,0 0,-10z M160,240l10,0 0,10 -10,0 0,-10z M190,240l10,0 0,10 -10,0 0,-10z M200,240l10,0 0,10 -10,0 0,-10z M210,240l10,0 0,10 -10,0 0,-10z M250,240l10,0 0,10 -10,0 0,-10z M280,240l10,0 0,10 -10,0 0,-10z M10,250l10,0 0,10 -10,0 0,-10z M30,250l10,0 0,10 -10,0 0,-10z M40,250l10,0 0,10 -10,0 0,-10z M50,250l10,0 0,10 -10,0 0,-10z M70,250l10,0 0,10 -10,0 0,-10z M100,250l10,0 0,10 -10,0 0,-10z M120,250l10,0 0,10 -10,0 0,-10z M130,250l10,0 0,10 -10,0 0,-10z M140,250l10,0 0,10 -10,0 0,-10z M160,250l10,0 0,10 -10,0 0,-10z M200,250l10,0 0,10 -10,0 0,-10z M210,250l10,0 0,10 -10,0 0,-10z M220,250l10,0 0,10 -10,0 0,-10z M230,250l10,0 0,10 -10,0 0,-10z M240,250l10,0 0,10 -10,0 0,-10z M250,250l10,0 0,10 -10,0 0,-10z M260,250l10,0 0,10 -10,0 0,-10z M290,250l10,0 0,10 -10,0 0,-10z M10,260l10,0 0,10 -10,0 0,-10z M30,260l10,0 0,10 -10,0 0,-10z M40,260l10,0 0,10 -10,0 0,-10z M50,260l10,0 0,10 -10,0 0,-10z M70,260l10,0 0,10 -10,0 0,-10z M160,260l10,0 0,10 -10,0 0,-10z M170,260l10,0 0,10 -10,0 0,-10z M190,260l10,0 0,10 -10,0 0,-10z M210,260l10,0 0,10 -10,0 0,-10z M220,260l10,0 0,10 -10,0 0,-10z M240,260l10,0 0,10 -10,0 0,-10z M260,260l10,0 0,10 -10,0 0,-10z M270,260l10,0 0,10 -10,0 0,-10z M290,260l10,0 0,10 -10,0 0,-10z M10,270l10,0 0,10 -10,0 0,-10z M30,270l10,0 0,10 -10,0 0,-10z M40,270l10,0 0,10 -10,0 0,-10z M50,270l10,0 0,10 -10,0 0,-10z M70,270l10,0 0,10 -10,0 0,-10z M100,270l10,0 0,10 -10,0 0,-10z M110,270l10,0 0,10 -10,0 0,-10z M120,270l10,0 0,10 -10,0 0,-10z M130,270l10,0 0,10 -10,0 0,-10z M160,270l10,0 0,10 -10,0 0,-10z M220,270l10,0 0,10 -10,0 0,-10z M230,270l10,0 0,10 -10,0 0,-10z M240,270l10,0 0,10 -10,0 0,-10z M250,270l10,0 0,10 -10,0 0,-10z M260,270l10,0 0,10 -10,0 0,-10z M270,270l10,0 0,10 -10,0 0,-10z M280,270l10,0 0,10 -10,0 0,-10z M10,280l10,0 0,10 -10,0 0,-10z M70,280l10,0 0,10 -10,0 0,-10z M90,280l10,0 0,10 -10,0 0,-10z M100,280l10,0 0,10 -10,0 0,-10z M110,280l10,0 0,10 -10,0 0,-10z M120,280l10,0 0,10 -10,0 0,-10z M200,280l10,0 0,10 -10,0 0,-10z M220,280l10,0 0,10 -10,0 0,-10z M230,280l10,0 0,10 -10,0 0,-10z M240,280l10,0 0,10 -10,0 0,-10z M250,280l10,0 0,10 -10,0 0,-10z M260,280l10,0 0,10 -10,0 0,-10z M270,280l10,0 0,10 -10,0 0,-10z M290,280l10,0 0,10 -10,0 0,-10z M10,290l10,0 0,10 -10,0 0,-10z M20,290l10,0 0,10 -10,0 0,-10z M30,290l10,0 0,10 -10,0 0,-10z M40,290l10,0 0,10 -10,0 0,-10z M50,290l10,0 0,10 -10,0 0,-10z M60,290l10,0 0,10 -10,0 0,-10z M70,290l10,0 0,10 -10,0 0,-10z M90,290l10,0 0,10 -10,0 0,-10z M120,290l10,0 0,10 -10,0 0,-10z M160,290l10,0 0,10 -10,0 0,-10z M170,290l10,0 0,10 -10,0 0,-10z M180,290l10,0 0,10 -10,0 0,-10z M200,290l10,0 0,10 -10,0 0,-10z M220,290l10,0 0,10 -10,0 0,-10z M240,290l10,0 0,10 -10,0 0,-10z M270,290l10,0 0,10 -10,0 0,-10z " stroke="transparent" fill="#000000"/></svg>