<svg version="1.1" xmlns="http://www.w3.org/2000/svg" width="300px" height="300px" viewBox="0 0 324 324"  preserveAspectRatio="xMinYMin meet"><rect width="100%" height="100%" fill="#ffffff" cx="0" cy="0"/><path d="M12,12l12,0 0,12 -12,0 0,-12z M24,12l12,0 0,12 -12,0 0,-12z M36,12l12,0 0,12 -12,0 0,-12z M48,12l12,0 0,12 -12,0 0,-12z M60,12l12,0 0,12 -12,0 0,-12z M72,12l12,0 0,12 -12,0 0,-12z M84,12l12,0 0,12 -12,0 0,-12z M132,12l12,0 0,12 -12,0 0,-12z M168,12l12,0 0,12 -12,0 0,-12z M180,12l12,0 0,12 -12,0 0,-12z M228,12l12,0 0,12 -12,0 0,-12z M240,12l12,0 0,12 -12,0 0,-12z M252,12l12,0 0,12 -12,0 0,-12z M264,12l12,0 0,12 -12,0 0,-12z M276,12l12,0 0,12 -12,0 0,-12z M288,12l12,0 0,12 -12,0 0,-12z M300,12l12,0 0,12 -12,0 0,-12z M12,24l12,0 0,12 -12,0 0,-12z M84,24l12,0 0,12 -12,0 0,-12z M168,24l12,0 0,12 -12,0 0,-12z M180,24l12,0 0,12 -12,0 0,-12z M204,24l12,0 0,12 -12,0 0,-12z M228,24l12,0 0,12 -12,0 0,-12z M300,24l12,0 0,12 -12,0 0,-12z M12,36l12,0 0,12 -12,0 0,-12z M36,36l12,0 0,12 -12,0 0,-12z M48,36l12,0 0,12 -12,0 0,-12z M60,36l12,0 0,12 -12,0 0,-12z M84,36l12,0 0,12 -12,0 0,-12z M120,36l12,0 0,12 -12,0 0,-12z M132,36l12,0 0,12 -12,0 0,-12z M180,36l12,0 0,12 -12,0 0,-12z M192,36l12,0 0,12 -12,0 0,-12z M204,36l12,0 0,12 -12,0 0,-12z M228,36l12,0 0,12 -12,0 0,-12z M252,36l12,0 0,12 -12,0 0,-12z M264,36l12,0 0,12 -12,0 0,-12z M276,36l12,0 0,12 -12,0 0,-12z M300,36l12,0 0,12 -12,0 0,-12z M12,48l12,0 0,12 -12,0 0,-12z M36,48l12,0 0,12 -12,0 0,-12z M48,48l12,0 0,12 -12,0 0,-12z M60,48l12,0 0,12 -12,0 0,-12z M84,48l12,0 0,12 -12,0 0,-12z M108,48l12,0 0,12 -12,0 0,-12z M120,48l12,0 0,12 -12,0 0,-12z M144,48l12,0 0,12 -12,0 0,-12z M156,48l12,0 0,12 -12,0 0,-12z M168,48l12,0 0,12 -12,0 0,-12z M204,48l12,0 0,12 -12,0 0,-12z M228,48l12,0 0,12 -12,0 0,-12z M252,48l12,0 0,12 -12,0 0,-12z M264,48l12,0 0,12 -12,0 0,-12z M276,48l12,0 0,12 -12,0 0,-12z M300,48l12,0 0,12 -12,0 0,-12z M12,60l12,0 0,12 -12,0 0,-12z M36,60l12,0 0,12 -12,0 0,-12z M48,60l12,0 0,12 -12,0 0,-12z M60,60l12,0 0,12 -12,0 0,-12z M84,60l12,0 0,12 -12,0 0,-12z M108,60l12,0 0,12 -12,0 0,-12z M144,60l12,0 0,12 -12,0 0,-12z M168,60l12,0 0,12 -12,0 0,-12z M204,60l12,0 0,12 -12,0 0,-12z M228,60l12,0 0,12 -12,0 0,-12z M252,60l12,0 0,12 -12,0 0,-12z M264,60l12,0 0,12 -12,0 0,-12z M276,60l12,0 0,12 -12,0 0,-12z M300,60l12,0 0,12 -12,0 0,-12z M12,72l12,0 0,12 -12,0 0,-12z M84,72l12,0 0,12 -12,0 0,-12z M120,72l12,0 0,12 -12,0 0,-12z M132,72l12,0 0,12 -12,0 0,-12z M156,72l12,0 0,12 -12,0 0,-12z M168,72l12,0 0,12 -12,0 0,-12z M180,72l12,0 0,12 -12,0 0,-12z M204,72l12,0 0,12 -12,0 0,-12z M228,72l12,0 0,12 -12,0 0,-12z M300,72l12,0 0,12 -12,0 0,-12z M12,84l12,0 0,12 -12,0 0,-12z M24,84l12,0 0,12 -12,0 0,-12z M36,84l12,0 0,12 -12,0 0,-12z M48,84l12,0 0,12 -12,0 0,-12z M60,84l12,0 0,12 -12,0 0,-12z M72,84l12,0 0,12 -12,0 0,-12z M84,84l12,0 0,12 -12,0 0,-12z M108,84l12,0 0,12 -12,0 0,-12z M132,84l12,0 0,12 -12,0 0,-12z M156,84l12,0 0,12 -12,0 0,-12z M180,84l12,0 0,12 -12,0 0,-12z M204,84l12,0 0,12 -12,0 0,-12z M228,84l12,0 0,12 -12,0 0,-12z M240,84l12,0 0,12 -12,0 0,-12z M252,84l12,0 0,12 -12,0 0,-12z M264,84l12,0 0,12 -12,0 0,-12z M276,84l12,0 0,12 -12,0 0,-12z M288,84l12,0 0,12 -12,0 0,-12z M300,84l12,0 0,12 -12,0 0,-12z M180,96l12,0 0,12 -12,0 0,-12z M12,108l12,0 0,12 -12,0 0,-12z M24,108l12,0 0,12 -12,0 0,-12z M72,108l12,0 0,12 -12,0 0,-12z M84,108l12,0 0,12 -12,0 0,-12z M96,108l12,0 0,12 -12,0 0,-12z M120,108l12,0 0,12 -12,0 0,-12z M156,108l12,0 0,12 -12,0 0,-12z M168,108l12,0 0,12 -12,0 0,-12z M180,108l12,0 0,12 -12,0 0,-12z M252,108l12,0 0,12 -12,0 0,-12z M264,108l12,0 0,12 -12,0 0,-12z M24,120l12,0 0,12 -12,0 0,-12z M108,120l12,0 0,12 -12,0 0,-12z M120,120l12,0 0,12 -12,0 0,-12z M132,120l12,0 0,12 -12,0 0,-12z M144,120l12,0 0,12 -12,0 0,-12z M180,120l12,0 0,12 -12,0 0,-12z M192,120l12,0 0,12 -12,0 0,-12z M216,120l12,0 0,12 -12,0 0,-12z M240,120l12,0 0,12 -12,0 0,-12z M252,120l12,0 0,12 -12,0 0,-12z M264,120l12,0 0,12 -12,0 0,-12z M276,120l12,0 0,12 -12,0 0,-12z M288,120l12,0 0,12 -12,0 0,-12z M12,132l12,0 0,12 -12,0 0,-12z M48,132l12,0 0,12 -12,0 0,-12z M60,132l12,0 0,12 -12,0 0,-12z M84,132l12,0 0,12 -12,0 0,-12z M96,132l12,0 0,12 -12,0 0,-12z M132,132l12,0 0,12 -12,0 0,-12z M168,132l12,0 0,12 -12,0 0,-12z M180,132l12,0 0,12 -12,0 0,-12z M192,132l12,0 0,12 -12,0 0,-12z M216,132l12,0 0,12 -12,0 0,-12z M228,132l12,0 0,12 -12,0 0,-12z M240,132l12,0 0,12 -12,0 0,-12z M252,132l12,0 0,12 -12,0 0,-12z M264,132l12,0 0,12 -12,0 0,-12z M288,132l12,0 0,12 -12,0 0,-12z M300,132l12,0 0,12 -12,0 0,-12z M24,144l12,0 0,12 -12,0 0,-12z M36,144l12,0 0,12 -12,0 0,-12z M48,144l12,0 0,12 -12,0 0,-12z M72,144l12,0 0,12 -12,0 0,-12z M120,144l12,0 0,12 -12,0 0,-12z M156,144l12,0 0,12 -12,0 0,-12z M180,144l12,0 0,12 -12,0 0,-12z M204,144l12,0 0,12 -12,0 0,-12z M216,144l12,0 0,12 -12,0 0,-12z M240,144l12,0 0,12 -12,0 0,-12z M264,144l12,0 0,12 -12,0 0,-12z M300,144l12,0 0,12 -12,0 0,-12z M12,156l12,0 0,12 -12,0 0,-12z M36,156l12,0 0,12 -12,0 0,-12z M60,156l12,0 0,12 -12,0 0,-12z M72,156l12,0 0,12 -12,0 0,-12z M84,156l12,0 0,12 -12,0 0,-12z M108,156l12,0 0,12 -12,0 0,-12z M120,156l12,0 0,12 -12,0 0,-12z M144,156l12,0 0,12 -12,0 0,-12z M156,156l12,0 0,12 -12,0 0,-12z M192,156l12,0 0,12 -12,0 0,-12z M204,156l12,0 0,12 -12,0 0,-12z M228,156l12,0 0,12 -12,0 0,-12z M300,156l12,0 0,12 -12,0 0,-12z M12,168l12,0 0,12 -12,0 0,-12z M24,168l12,0 0,12 -12,0 0,-12z M36,168l12,0 0,12 -12,0 0,-12z M72,168l12,0 0,12 -12,0 0,-12z M144,168l12,0 0,12 -12,0 0,-12z M168,168l12,0 0,12 -12,0 0,-12z M192,168l12,0 0,12 -12,0 0,-12z M204,168l12,0 0,12 -12,0 0,-12z M216,168l12,0 0,12 -12,0 0,-12z M240,168l12,0 0,12 -12,0 0,-12z M288,168l12,0 0,12 -12,0 0,-12z M12,180l12,0 0,12 -12,0 0,-12z M36,180l12,0 0,12 -12,0 0,-12z M48,180l12,0 0,12 -12,0 0,-12z M72,180l12,0 0,12 -12,0 0,-12z M84,180l12,0 0,12 -12,0 0,-12z M96,180l12,0 0,12 -12,0 0,-12z M108,180l12,0 0,12 -12,0 0,-12z M132,180l12,0 0,12 -12,0 0,-12z M168,180l12,0 0,12 -12,0 0,-12z M180,180l12,0 0,12 -12,0 0,-12z M192,180l12,0 0,12 -12,0 0,-12z M216,180l12,0 0,12 -12,0 0,-12z M228,180l12,0 0,12 -12,0 0,-12z M240,180l12,0 0,12 -12,0 0,-12z M252,180l12,0 0,12 -12,0 0,-12z M264,180l12,0 0,12 -12,0 0,-12z M288,180l12,0 0,12 -12,0 0,-12z M300,180l12,0 0,12 -12,0 0,-12z M12,192l12,0 0,12 -12,0 0,-12z M48,192l12,0 0,12 -12,0 0,-12z M120,192l12,0 0,12 -12,0 0,-12z M132,192l12,0 0,12 -12,0 0,-12z M144,192l12,0 0,12 -12,0 0,-12z M192,192l12,0 0,12 -12,0 0,-12z M216,192l12,0 0,12 -12,0 0,-12z M240,192l12,0 0,12 -12,0 0,-12z M264,192l12,0 0,12 -12,0 0,-12z M276,192l12,0 0,12 -12,0 0,-12z M300,192l12,0 0,12 -12,0 0,-12z M12,204l12,0 0,12 -12,0 0,-12z M84,204l12,0 0,12 -12,0 0,-12z M120,204l12,0 0,12 -12,0 0,-12z M144,204l12,0 0,12 -12,0 0,-12z M156,204l12,0 0,12 -12,0 0,-12z M168,204l12,0 0,12 -12,0 0,-12z M204,204l12,0 0,12 -12,0 0,-12z M216,204l12,0 0,12 -12,0 0,-12z M228,204l12,0 0,12 -12,0 0,-12z M240,204l12,0 0,12 -12,0 0,-12z M252,204l12,0 0,12 -12,0 0,-12z M276,204l12,0 0,12 -12,0 0,-12z M108,216l12,0 0,12 -12,0 0,-12z M132,216l12,0 0,12 -12,0 0,-12z M144,216l12,0 0,12 -12,0 0,-12z M156,216l12,0 0,12 -12,0 0,-12z M168,216l12,0 0,12 -12,0 0,-12z M204,216l12,0 0,12 -12,0 0,-12z M252,216l12,0 0,12 -12,0 0,-12z M12,228l12,0 0,12 -12,0 0,-12z M24,228l12,0 0,12 -12,0 0,-12z M36,228l12,0 0,12 -12,0 0,-12z M48,228l12,0 0,12 -12,0 0,-12z M60,228l12,0 0,12 -12,0 0,-12z M72,228l12,0 0,12 -12,0 0,-12z M84,228l12,0 0,12 -12,0 0,-12z M108,228l12,0 0,12 -12,0 0,-12z M120,228l12,0 0,12 -12,0 0,-12z M144,228l12,0 0,12 -12,0 0,-12z M204,228l12,0 0,12 -12,0 0,-12z M228,228l12,0 0,12 -12,0 0,-12z M252,228l12,0 0,12 -12,0 0,-12z M300,228l12,0 0,12 -12,0 0,-12z M12,240l12,0 0,12 -12,0 0,-12z M84,240l12,0 0,12 -12,0 0,-12z M108,240l12,0 0,12 -12,0 0,-12z M132,240l12,0 0,12 -12,0 0,-12z M192,240l12,0 0,12 -12,0 0,-12z M204,240l12,0 0,12 -12,0 0,-12z M252,240l12,0 0,12 -12,0 0,-12z M288,240l12,0 0,12 -12,0 0,-12z M12,252l12,0 0,12 -12,0 0,-12z M36,252l12,0 0,12 -12,0 0,-12z M48,252l12,0 0,12 -12,0 0,-12z M60,252l12,0 0,12 -12,0 0,-12z M84,252l12,0 0,12 -12,0 0,-12z M120,252l12,0 0,12 -12,0 0,-12z M132,252l12,0 0,12 -12,0 0,-12z M144,252l12,0 0,12 -12,0 0,-12z M156,252l12,0 0,12 -12,0 0,-12z M168,252l12,0 0,12 -12,0 0,-12z M180,252l12,0 0,12 -12,0 0,-12z M192,252l12,0 0,12 -12,0 0,-12z M204,252l12,0 0,12 -12,0 0,-12z M216,252l12,0 0,12 -12,0 0,-12z M228,252l12,0 0,12 -12,0 0,-12z M240,252l12,0 0,12 -12,0 0,-12z M252,252l12,0 0,12 -12,0 0,-12z M276,252l12,0 0,12 -12,0 0,-12z M288,252l12,0 0,12 -12,0 0,-12z M12,264l12,0 0,12 -12,0 0,-12z M36,264l12,0 0,12 -12,0 0,-12z M48,264l12,0 0,12 -12,0 0,-12z M60,264l12,0 0,12 -12,0 0,-12z M84,264l12,0 0,12 -12,0 0,-12z M144,264l12,0 0,12 -12,0 0,-12z M180,264l12,0 0,12 -12,0 0,-12z M192,264l12,0 0,12 -12,0 0,-12z M204,264l12,0 0,12 -12,0 0,-12z M228,264l12,0 0,12 -12,0 0,-12z M288,264l12,0 0,12 -12,0 0,-12z M300,264l12,0 0,12 -12,0 0,-12z M12,276l12,0 0,12 -12,0 0,-12z M36,276l12,0 0,12 -12,0 0,-12z M48,276l12,0 0,12 -12,0 0,-12z M60,276l12,0 0,12 -12,0 0,-12z M84,276l12,0 0,12 -12,0 0,-12z M120,276l12,0 0,12 -12,0 0,-12z M132,276l12,0 0,12 -12,0 0,-12z M168,276l12,0 0,12 -12,0 0,-12z M192,276l12,0 0,12 -12,0 0,-12z M204,276l12,0 0,12 -12,0 0,-12z M264,276l12,0 0,12 -12,0 0,-12z M276,276l12,0 0,12 -12,0 0,-12z M300,276l12,0 0,12 -12,0 0,-12z M12,288l12,0 0,12 -12,0 0,-12z M84,288l12,0 0,12 -12,0 0,-12z M108,288l12,0 0,12 -12,0 0,-12z M120,288l12,0 0,12 -12,0 0,-12z M132,288l12,0 0,12 -12,0 0,-12z M144,288l12,0 0,12 -12,0 0,-12z M180,288l12,0 0,12 -12,0 0,-12z M204,288l12,0 0,12 -12,0 0,-12z M216,288l12,0 0,12 -12,0 0,-12z M240,288l12,0 0,12 -12,0 0,-12z M252,288l12,0 0,12 -12,0 0,-12z M300,288l12,0 0,12 -12,0 0,-12z M12,300l12,0 0,12 -12,0 0,-12z M24,300l12,0 0,12 -12,0 0,-12z M36,300l12,0 0,12 -12,0 0,-12z M48,300l12,0 0,12 -12,0 0,-12z M60,300l12,0 0,12 -12,0 0,-12z M72,300l12,0 0,12 -12,0 0,-12z M84,300l12,0 0,12 -12,0 0,-12z M108,300l12,0 0,12 -12,0 0,-12z M132,300l12,0 0,12 -12,0 0,-12z M156,300l12,0 0,12 -12,0 0,-12z M204,300l12,0 0,12 -12,0 0,-12z M216,300l12,0 0,12 -12,0 0,-12z M264,300l12,0 0,12 -12,0 0,-12z M300,300l12,0 0,12 -12,0 0,-12z " stroke="transparent" fill="#000000"/></svg>